<svg width="19" height="18" viewBox="0 0 19 18" fill="none" xmlns="http://www.w3.org/2000/svg">
<path d="M17.6666 16.5V14.8333C17.6666 13.2801 16.6043 11.9751 15.1666 11.605M12.25 1.7423C13.4716 2.23679 14.3333 3.43443 14.3333 4.83333C14.3333 6.23224 13.4716 7.42988 12.25 7.92437M13.5 16.5C13.5 14.9469 13.5 14.1703 13.2462 13.5577C12.9079 12.741 12.259 12.092 11.4422 11.7537C10.8297 11.5 10.0531 11.5 8.49997 11.5H5.99997C4.44683 11.5 3.67026 11.5 3.05769 11.7537C2.24093 12.092 1.59202 12.741 1.2537 13.5577C0.999969 14.1703 0.999969 14.9469 0.999969 16.5M10.5833 4.83333C10.5833 6.67428 9.09092 8.16667 7.24997 8.16667C5.40902 8.16667 3.91664 6.67428 3.91664 4.83333C3.91664 2.99238 5.40902 1.5 7.24997 1.5C9.09092 1.5 10.5833 2.99238 10.5833 4.83333Z" stroke="black" stroke-width="1.5" stroke-linecap="round" stroke-linejoin="round"/>
</svg>
